<?xml version="1.0" encoding="utf-8"?>
<!-- Generator: Adobe Illustrator 24.2.0, SVG Export Plug-In . SVG Version: 6.00 Build 0)  -->
<svg version="1.1" id="Layer_1" xmlns="http://www.w3.org/2000/svg" xmlns:xlink="http://www.w3.org/1999/xlink" x="0px" y="0px"
	 viewBox="0 0 427.6 393.4" enable-background="new 0 0 427.6 393.4" xml:space="preserve">
<g>
	<path d="M175.6,386.7c-3-1-6.3-1.6-9.1-3.1c-7-3.7-11.2-9.5-11.7-17.7c-0.5-9.3,2.7-17.4,8-24.8c8.8-12.1,20.3-20.9,33.6-27.7
		c15-7.7,31-11.9,47.3-15.5c27.2-5.9,54.5-11.7,81.7-17.8c11.6-2.6,22.9-6.3,32.9-13.2c5.3-3.7,10-8,14.1-13c0.3-0.3,0.5-0.7,0.8-1
		c8.5-10.9,3.7-22.5-5.4-28.3c-5.4-3.4-11.5-5-17.8-5.5c-7.8-0.5-15.5-0.9-23.3-0.9c-22.3-0.1-44.6,0-66.8-0.1
		c-2.9,0-5.6,0.6-8.5,1.3c-8.5,1.9-17.1,3.2-25.7,4.8c-6.1,1.2-12.4,2.2-18.4,4c-9.9,3-17.6,8.9-22.6,18.2c-2.3,4.4-5,8.6-7.9,12.6
		c-2,2.7-4.6,4.9-7.3,6.9c-2.3,1.8-5.1,1.6-7.8,0.3c-0.8-0.4-2.1-0.2-2.9,0.2c-3,1.6-5.6,1.4-8.1-0.9c-0.9-0.8-1.4-1.3-2.8-0.6
		c-0.7,0.4-2,0.1-2.8-0.3c-3.4-1.8-5.3-4.8-6-8.5c-0.2-1.1-0.6-1.7-1.8-1.9c-2.7-0.5-4.4-2.3-5.6-4.7c-0.4-0.7-1.2-1.4-1.9-1.6
		c-3.5-1.3-5.7-3.7-6.7-7.3c-1.9-6.9-2.1-13.8-0.6-20.8c1-4.8,2.4-9.6,3.6-14.7c-0.1-0.1-0.5-0.5-1-0.8
		c-15.8-11.6-29.8-25-41.9-40.4c-5.2-6.7-10.8-13.1-16.1-19.8c-1.1-1.4-2.2-1-3.4-0.7c-12.1,3.5-24.2,7-36.3,10.5
		c-0.8,0.2-1.7,0.7-2.5,0.6c-0.8-0.1-2-0.7-2.1-1.3c-0.2-0.8,0.2-2,0.8-2.6c0.6-0.6,1.6-0.9,2.5-1.2c11.5-3.4,23.1-6.7,34.6-10.1
		c0.6-0.2,1.2-0.4,2-0.6c-2.5-3.6-4.8-7-7.3-10.4c-0.4-0.6-1.7-0.7-2.5-0.7c-10-0.1-19.8,1.7-29.5,4c-2.9,0.7-4.2,0.4-4.6-1.2
		c-0.4-1.6,0.6-2.6,3.4-3.3c9.7-2.4,19.4-4.1,29.6-4.2c-0.8-3.4-5-5.3-3.3-9.6c-1.6-0.2-2.9-0.4-4.3-0.4
		c-10.2-0.1-20.5-0.1-30.7-0.1c-1,0-2.1,0.2-3-0.2c-0.7-0.3-1.6-1.2-1.6-1.9c0-0.7,0.7-1.6,1.4-2.1c0.6-0.4,1.5-0.4,2.3-0.4
		c11.6,0.1,23.2,0.2,34.8,0.3c0.5,0,1,0,1.7,0.1c0.9-4.1,1.8-8.1,2.6-12.1c3.5-16.9,6.8-33.7,10.4-50.6c1.1-5.3,2.6-10.5,4.2-15.7
		c1.3-4.4,3.8-5.3,7.3-2.2c5.1,4.5,9.9,9.3,14.7,14c3.1,3.1,6.1,6.3,9.3,9.4c0.6,0.6,1.7,1.1,2.6,1.1c12.2,0.1,24.4,0.1,36.6,0
		c1.1,0,2.5-0.8,3.1-1.7c3.8-4.9,7.2-10.1,11.1-14.9c3.7-4.6,7.6-9,11.9-13.1c3.5-3.3,5.4-2.5,7.2,2c5.9,14.8,11.8,29.5,17.7,44.3
		c0.6,1.6,1.6,1.8,2.8,1.3c1-0.5,1.9-1.3,2.8-2c17.6-15,34.9-30.4,54.4-43.1c10.3-6.7,21.4-11.6,33.7-13.4c6.6-1,13.2-0.8,19.8,0.5
		c2.3,0.4,4.7,1.2,6.7,2.3c13.4,7.7,26.3,16.2,37.6,26.8c17.9,16.8,30.9,37.1,39.2,60.1c5.2,14.3,7.3,29.1,4.3,44.2
		c-1.8,9.1-4.6,17.8-9.2,26c-2,3.6-4.1,7.3-6.1,10.9c-0.9,1.6-0.3,3.9,1.8,5.7c2.9,2.4,5.9,4.6,8.8,7c7.5,6.2,15.4,11.9,21.2,19.9
		c10.4,14.4,13.2,30.3,10.1,47.5c-2.6,14.1-9.4,25.5-21.3,34.1c-14.8,10.7-31.4,16.9-48.7,21.5c-20.7,5.5-41.4,10.7-62,16.5
		c-11.2,3.1-22.1,6.9-33.1,10.8c-9.8,3.4-18.8,8.3-27,14.8c-7.4,5.8-14.9,11.3-22.5,16.9c-5.4,4-11.5,6.6-17.9,8.3
		c-1.5,0.4-3.1,0.5-4.7,0.8C177.6,386.7,176.6,386.7,175.6,386.7z M297.4,213.6c-3.3-3.7-6.7-7.1-9.7-10.8
		c-8.4-10.3-15.9-21.1-20.5-33.6c-5.6-15.1-4.3-29.9,2.5-44.1c3.4-7,8-13.5,12.7-19.8c6.9-9.3,15.7-15.7,27.7-16.9
		c6.8-0.7,12.7,0.7,17.7,5.5c2,1.9,2.5,3.5,1.2,4.6c-1.9,1.6-3.2,0.1-4.4-1.1c-3-3.2-6.8-4.6-11.1-4.5c-9.1,0.2-16.8,3.6-23.1,10.2
		c-6.3,6.6-11.4,14.1-15.6,22.2c-6.9,13.2-8.6,27.2-3.5,41.4c5.8,16.2,16,29.8,28,41.9c3.4,3.5,7.6,5.7,13.1,5.3
		c7.9-0.5,15.9-0.3,23.8-0.1c2.9,0.1,4.9-0.9,6.8-3c6.1-6.6,12.4-13.1,18.7-19.5c4.5-4.6,8.2-9.7,11.2-15.3c1.2-2.4,2.6-4.7,3.8-7
		c6.6-13.1,10.3-26.9,9-41.7c-1-11.1-3.7-21.8-8.3-32.1c-8.5-18.9-19.7-35.9-34.9-50c-11-10.2-23.4-18.4-36.4-25.9
		c-1.6-0.9-3.5-1.5-5.3-1.8c-7.8-1.3-15.6-1.4-23.4,0.5c-14.3,3.4-26.8,10.6-38.2,19.6c-14.6,11.6-28.8,23.7-43.2,35.6
		c-0.7,0.5-1.3,1.1-2.1,1.6c-4.7,2.7-8.1,1.5-10.1-3.5c-3.2-7.9-6.5-15.9-9.7-23.8c-2.7-6.7-5.4-13.3-8.2-20.2
		c-0.9,0.8-2,1.6-2.8,2.5c-3.9,4.6-7.8,9.2-11.6,14c-2.8,3.5-5.3,7.2-7.9,10.8c-1.3,1.8-2.8,3.2-5.3,3.2c-13.3-0.1-26.7,0-40,0
		c-0.7,0-1.7-0.4-2.2-0.9C88,49,80.2,41.1,72.3,33.3c-0.4-0.4-0.9-0.6-1.5-1.1c-0.3,1.1-0.6,1.9-0.8,2.7c-1.3,5.1-2.9,10.1-3.8,15.3
		c-2.7,15.8-5.6,31.6-9.6,47.2c-1,4-1.7,8-2.6,12.1c1,0.2,1.7,0.2,2.4,0.4c4.8,1.4,9.7,2.8,14.4,4.3c1.3,0.4,2.5,1.4,3.6,2.3
		c1.1,0.9,1.5,2.3,0.4,3.2c-0.7,0.6-2,0.4-3.1,0.4c-0.4,0-0.8-0.5-1.3-0.8c-5.2-3.2-11-4.3-17.5-5.2c0.4,1.2,0.5,2,0.9,2.6
		c1,1.7,2.1,3.3,3,5c0.7,1.3,1.6,1.7,3.1,2c3.8,0.6,7.7,1.3,11.4,2.2c1.1,0.2,2.3,0.7,3,1.5c0.6,0.6,0.9,2,0.6,2.6
		c-0.3,0.6-1.6,1-2.5,1.1c-0.6,0.1-1.2-0.4-1.8-0.6c-2.9-0.7-5.9-1.4-8.8-2.1c-0.1,0.2-0.2,0.4-0.3,0.6c1.5,2.1,3.1,4.1,4.5,6.3
		c1.3,2.1,2.8,3.1,5.3,2.3c0.7-0.2,1.4-0.2,2.1-0.2c1.5,0,2.8,0.4,2.9,2.2c0.1,1.6-1.1,2.2-2.5,2.4c-0.7,0.1-1.3,0.2-2.3,0.3
		c0.7,0.9,1.1,1.5,1.6,2.2c4.1,5,8.4,9.9,12.4,15c13.2,17,28.5,31.7,46.2,44c6.3,4.4,12.7,8.7,20.1,11.3c1.7,0.6,3.4,1.7,5.2,0.1
		c11.1-9.4,23.8-15.6,38-18.7c0.9-0.2,1.9-0.4,3.1-0.7c-1.1-1.7-2-2.9-2.8-4.3c-0.7-1.3-0.7-2.6,0.7-3.4c1.3-0.8,2.4-0.3,3.2,0.9
		c1.3,1.9,2.6,3.8,3.7,5.8c1.4,2.4,0.7,4.2-1.9,5.1c-1,0.3-1.9,0.6-2.9,0.8c-9,1.6-17.2,5.1-25.3,9.3c-14.8,7.6-23.7,19.7-28.4,35.3
		c-1.1,3.6-1.7,7.4-0.4,11.1c0.5,1.6,1.6,3,2.5,4.4c0.5-2.8,0.3-5.3,0.6-7.7c0.3-2.8,1.5-3.9,3.1-3.7c1.6,0.3,2,1.6,1.5,4.5
		c-0.5,2.9-0.3,5.7,1.7,7.9c0.7,0.8,2.3,1.3,3.3,1.2c1.3-0.2,2.2-1.3,2-3.1c-0.2-1.9,1.1-3.3,2.4-2.7c1,0.5,1.9,1.7,2.1,2.8
		c0.7,3,2.1,3.8,4.6,1.9c2.2-1.7,4.2-3.8,5.8-6c2.8-4,5.4-8.2,7.7-12.5c5-9,12.5-14.8,21.9-18.3c8.1-3.1,16.7-4.3,25.3-5.6
		c7.3-1.1,14.6-2.8,21.8-4.2c1.8-0.3,2.6-1.5,2.5-3.2c-0.3-3.3-0.6-6.6-1-9.9c-0.2-1.4-0.1-2.5,1.3-3c1.5-0.5,2.6,0.3,3,1.7
		c0.4,1.3,0.8,2.6,0.9,4c0.3,3,0.4,6,0.6,8.9C271,213.6,284.2,213.6,297.4,213.6z M346,214.3c0.6,0.2,0.7,0.2,0.9,0.3
		c0.8,0.1,1.6,0.1,2.4,0.1c8.4,0.5,16.2,2.5,23.1,7.6c9.3,6.9,13.9,19.7,6,31.6c-0.8,1.1-1.6,2.2-2.4,3.3
		c-4.2,5.2-9.1,9.6-14.5,13.5c-10.3,7.2-21.9,11.3-34,14c-27.8,6.2-55.6,12.1-83.4,18.2c-15.6,3.4-30.9,7.5-45.3,14.8
		c-13.3,6.8-24.9,15.6-33.3,28.1c-4.2,6.2-6.8,13-5.5,20.8c1.7,10.3,10.7,16.4,21,14.8c7.9-1.2,14.4-4.9,20.6-9.5
		c6.8-5.1,13.6-10.2,20.3-15.4c7.3-5.7,15.2-10.3,23.9-13.4c14.4-5,28.9-10,43.5-14.2c19.7-5.6,39.7-10.4,59.5-15.7
		c15.6-4.2,30.4-10.1,43.3-19.9c4-3,7.8-6.1,10.7-10.2c6.3-9,9-19.1,9.5-29.9c0.8-18-5.9-32.7-19.6-44.4c-4.7-4-9.6-7.8-14.4-11.7
		c-2.9-2.4-5.8-4.9-8.7-7.4C362,197.5,354.1,205.8,346,214.3z M138.2,250.2c0.2-0.1,0.4-0.3,0.6-0.4c1.6-11,6.7-20.4,12.9-29.2
		c-7.1-3.9-14.1-7.7-21.2-11.6c-2.4,4.9-3.1,10.4-3.9,16c-0.7,4.8-0.2,9.5,1,14.1c0.3,1.3,1.2,2.5,1.8,3.7c0.5-2.5,0.5-4.7,0.9-6.9
		c0.2-1.4,1.2-2.6,2.9-2.2c1.7,0.4,2,1.7,1.6,3.2c-0.8,3.6,0,7,1.2,10.4C136.4,248.4,137.4,249.2,138.2,250.2z"/>
	<path d="M147.9,94.6c-2.2,0.7-3.9,1.7-3.8,4.1c0,2.1,1.2,3.3,4.4,4.2c-0.4,4.5-1.4,8.9-3.8,12.8c-1,1.6-2.5,2.7-4.5,2.3
		c-2-0.3-3.2-1.8-3.6-3.6c-0.4-1.7-0.8-3.6-0.5-5.3c1-5.9,2.2-11.7,3.5-17.5c0.4-2,1.7-3.5,4.1-3.4c2.4,0.1,3,1.9,3.6,3.7
		C147.5,92.8,147.7,93.7,147.9,94.6z"/>
	<path d="M88.8,91.2c-2.3,0.1-4,0.7-4.3,3c-0.3,2.6,1.2,3.8,3.9,4.7c-1.3,4.3-2.4,8.6-4,12.7c-0.5,1.3-2.5,2.3-4,2.9
		c-1.7,0.7-3.2-0.4-3.6-2.1c-0.5-2.1-1-4.5-0.7-6.6c0.8-5.1,2-10.1,3.2-15.2c0.3-1.2,1.1-2.3,1.8-3.4c0.9-1.4,2.2-2.3,4-1.9
		c1.8,0.3,2.9,1.6,3.3,3.3C88.6,89.4,88.7,90.2,88.8,91.2z"/>
	<path d="M210.8,125.9c-6.5-0.5-13.1-1.1-19.6-1.4c-9.5-0.5-18.9,0-28.2,2.1c-1.5,0.3-3,0.2-3.5-1.6c-0.4-1.8,0.9-2.6,2.4-2.9
		c8.6-2,17.2-2.7,26-2.4c7.5,0.3,14.9,1.1,22.4,1.7c0.3,0,0.6,0.1,0.9,0.1c1.5,0.2,2.7,0.8,2.6,2.6
		C213.6,125.8,212.2,126.1,210.8,125.9z"/>
	<path d="M199.2,103.9c1.4,0,2.9,0,4.3,0c1.6,0,3.2,0.3,3.2,2.3c0,1.9-1.5,2.2-3.1,2.3c-3.5,0.2-7,0.4-10.6,0.7
		c-10.2,0.9-19.9,3.6-29.3,7.8c-0.8,0.4-1.6,0.9-2.4,0.8c-0.9-0.1-2.2-0.5-2.4-1.2c-0.3-0.8,0.3-2,0.8-2.8c0.3-0.5,1.2-0.7,1.9-1
		C173.5,107.4,186.1,104.6,199.2,103.9z"/>
	<path d="M164.1,132.5c6.5,1.6,13.1,2.9,19.4,4.9c6.8,2.2,13.5,5.1,20.2,7.7c0.4,0.2,0.8,0.3,1.2,0.6c1.2,0.7,1.9,1.7,1.2,3.1
		c-0.6,1.3-1.8,1.5-3.1,1.1c-0.5-0.2-0.9-0.4-1.4-0.6c-12.1-5.5-24.6-9.7-37.8-11.8c-1.4-0.2-2.8-0.7-2.7-2.5
		C161.1,133.2,162.5,132.9,164.1,132.5z"/>
	<path d="M104.1,127.8c-1.1,1-1.9,1.9-2.8,2.6c-1.1,0.9-2.4,1.3-3.5,0.1c-1.2-1.2-0.7-2.4,0.3-3.4c1.2-1.2,2.3-2.3,3.6-3.4
		c1.6-1.4,3.4-1.5,4.8,0c1.9,2.1,3.7,4.4,5.3,6.8c0.4,0.6-0.1,2.4-0.7,2.7c-0.8,0.4-2.4,0.2-3-0.4
		C106.7,131.4,105.6,129.7,104.1,127.8z"/>
</g>
</svg>
